<svg width="250" height="260" viewBox="0 0 250 260" fill="none" xmlns="http://www.w3.org/2000/svg">
<rect width="250" height="259.191" fill="white"/>
<path fill-rule="evenodd" clip-rule="evenodd" d="M179.228 117.647C179.228 118.567 177.39 119.486 176.229 119.891C175.975 120.006 175.746 120.163 175.553 120.356C175.142 120.766 174.883 121.339 174.883 121.972V158.682C174.883 160.913 174.001 163.03 172.42 164.61C169.142 167.891 163.825 167.903 160.541 164.616C158.96 163.036 158.078 160.913 158.078 158.682L158.084 86.6965C158.084 85.4541 157.505 84.2661 156.648 83.3856C154.915 81.6065 152.024 81.7391 150.286 83.47C149.459 84.2962 148.946 85.436 148.946 86.6965V190.139C148.946 192.455 148.004 194.554 146.483 196.074C143.206 199.348 137.882 199.348 134.604 196.074C133.083 194.554 132.142 192.455 132.142 190.139L132.148 69.0865C132.148 67.8441 131.55 66.638 130.693 65.7635C128.967 63.9905 126.094 64.1231 124.349 65.8661C123.522 66.6923 123.009 67.8321 123.009 69.0926V167.837C123.009 170.153 122.068 172.252 120.547 173.772C117.269 177.046 111.945 177.046 108.668 173.772C107.147 172.252 106.205 170.153 106.205 167.837L106.211 97.1425C106.211 95.9182 105.62 94.7 104.775 93.8316C103.048 92.0585 100.145 92.1851 98.4126 93.916C97.5857 94.7422 97.0787 95.882 97.0787 97.1425V154.774C97.0787 156.999 96.2095 159.14 94.6703 160.745C91.435 164.116 86.1235 164.17 82.7976 160.907C81.2826 159.418 80.3288 157.361 80.2927 155.07L80.2806 122.809C80.2806 121.977 79.9547 121.187 79.3692 120.596C78.8079 120.035 78.0292 119.691 77.166 119.691H75.6691C73.5294 119.486 72.6103 118.567 72.6103 117.647V116.728V115.809H73.5294H75.3676H77.166C79.0441 115.809 80.8178 116.646 82.0793 117.906C83.3348 119.167 84.1134 120.897 84.1134 122.809L84.1074 155.008C84.1315 156.25 84.6506 157.372 85.4776 158.18C87.2944 159.959 90.1614 159.917 91.918 158.096C92.7449 157.239 93.2459 156.057 93.2459 154.779L93.2398 97.141C93.2398 94.9096 94.1211 92.7867 95.7026 91.2065C98.956 87.9558 104.28 87.8472 107.515 91.1703C109.048 92.7443 110.044 94.9336 110.044 97.1409V167.829C110.044 169.09 110.557 170.23 111.378 171.056C113.164 172.841 116.044 172.841 117.836 171.056C118.663 170.23 119.176 169.09 119.176 167.829V69.0848C119.176 66.7689 120.118 64.6701 121.639 63.1503C124.892 59.8996 130.21 59.785 133.433 63.096C134.954 64.658 135.98 66.8834 135.98 69.0847L135.974 190.131C135.974 191.343 136.457 192.501 137.32 193.358C139.107 195.143 141.986 195.143 143.779 193.358C144.606 192.531 145.119 191.392 145.119 190.131L145.107 86.6885C145.107 84.3726 146.048 82.2738 147.569 80.754C150.811 77.5153 156.159 77.4068 159.382 80.7118C160.897 82.2677 161.911 84.4931 161.911 86.6884V158.68C161.911 159.898 162.388 161.044 163.251 161.906C165.031 163.685 167.923 163.698 169.709 161.912C170.536 161.086 171.049 159.94 171.049 158.68V121.97C171.049 120.342 171.689 118.798 172.842 117.646C173.729 116.765 174.882 116.15 176.168 115.939C177.39 115.809 179.228 115.809 179.228 115.809V116.269V116.728V117.188V117.647ZM193.015 117.775C193.015 114.144 190.069 111.201 186.435 111.201C182.802 111.201 188.506 114.275 188.506 117.906C188.506 121.537 182.802 124.342 186.435 124.348C190.069 124.348 193.015 121.405 193.015 117.775ZM65.4026 111.201C61.7689 111.201 58.8235 114.144 58.8235 117.775C58.8235 121.405 61.7689 124.342 65.4026 124.348C69.0363 124.348 63.3444 121.537 63.3444 117.906C63.3444 114.275 67.7507 117.773 64.117 117.773L65.4026 111.201Z" fill="black"/>
<rect x="36.7646" y="95.5889" width="29.4118" height="40.4412" fill="white"/>
<rect x="181.985" y="95.5889" width="29.4118" height="40.4412" fill="white"/>
<circle cx="128.676" cy="128.676" r="89.9118" stroke="black" stroke-width="4"/>
</svg>
